<svg xmlns="http://www.w3.org/2000/svg" xmlns:xlink="http://www.w3.org/1999/xlink" id="Layer_1" enable-background="new 0 0 64 64" version="1.1" viewBox="0 0 64 64" xml:space="preserve"><style type="text/css">.st0{fill:#134563}</style><g><g id="Icon-Check" transform="translate(328.000000, 278.000000)"><path id="Fill-43" d="M-296-222.6c-12.9,0-23.4-10.5-23.4-23.4c0-12.9,10.5-23.4,23.4-23.4 c12.9,0,23.4,10.5,23.4,23.4C-272.6-233.1-283.1-222.6-296-222.6L-296-222.6z M-296-266.9c-11.5,0-20.9,9.4-20.9,20.9 s9.4,20.9,20.9,20.9s20.9-9.4,20.9-20.9S-284.5-266.9-296-266.9L-296-266.9z" class="st0"/><polyline id="Fill-44" points="-298.8 -235.9 -310.7 -247.9 -308.9 -249.7 -298.8 -239.5 -283.1 -255.2 -281.3 -253.4 -298.8 -235.9" class="st0"/></g></g></svg>